# xmcd
#
# Track frame offsets:
#	150
#	19202
#	41884
#	59084
#	78038
#	101800
#	127570
#	157967
#	188304
#	204527
#	218154
#
# Disc length: 3230 seconds
#
# Revision: 0
# Processed by: cddbd v1.5.2PL0 Copyright (c) Steve Scherf et al.
# Submitted via: EasyCDDAExtractor 12.0.7.1
#
DISCID=8a0c9c0b
DTITLE=Eliane Elias - Dreamer
DYEAR=2004
DGENRE=
TTITLE0=Call Me
TTITLE1=Baubles, Bangles And Beads
TTITLE2=Photograph
TTITLE3=Movin' Me On
TTITLE4=So Nice
TTITLE5=That's All
TTITLE6=Tangerine
TTITLE7=Dreamer (Vivo Sonhando)
TTITLE8=Time Alone
TTITLE9=Doralice
TTITLE10=A House Is Not A Home
EXTD=
EXTT0=
EXTT1=
EXTT2=
EXTT3=
EXTT4=
EXTT5=
EXTT6=
EXTT7=
EXTT8=
EXTT9=
EXTT10=
PLAYORDER=
